<!DOCTYPE svg PUBLIC "-//W3C//DTD SVG 1.1//EN" "http://www.w3.org/Graphics/SVG/1.1/DTD/svg11.dtd">
<svg xmlns="http://www.w3.org/2000/svg" viewBox="0 0 1024 1024">
<path fill="#34bbd8" stroke="#34bbd8" d="M508.808 199.75c-13.798 14.786-27.941 46.002-25.847 57.046 6.849 36.113 60.43 29.86 57.81-6.747-.762-10.657-13.483-36.066-24.599-49.136-3.962-4.659-4.084-4.678-7.364-1.163M450.5 229.159c-36.925 8.791-54.55 15.409-87 32.666-26.854 14.282-62.788 44.367-83.817 70.175-3.361 4.125-6.374 7.725-6.695 8-.321.275-1.666 2.075-2.988 4-1.322 1.925-2.65 3.725-2.952 4-.301.275-.998 1.241-1.548 2.148-.55.906-2.462 3.741-4.25 6.3-1.787 2.559-3.25 4.902-3.25 5.207 0 .305-1.35 2.555-3 5s-3 4.64-3 4.878c0 .237-1.709 3.252-3.798 6.699-5.976 9.862-14.897 29.797-20.26 45.273-3.708 10.701-3.727 11.719-.219 11.311 2.504-.291 3.053-1.242 6.818-11.816 5.695-15.993 6.109-16.99 12.139-29.277 7.667-15.622 22.358-39.849 27.01-44.544.721-.727 1.31-1.632 1.31-2.011 0-.378 1.029-1.809 2.286-3.178 1.258-1.37 2.945-3.438 3.75-4.597 9.44-13.588 37.163-40.302 54.37-52.393 1.174-.825 4.6-3.338 7.614-5.584 12.26-9.137 36.507-22.463 54.113-29.741 17.884-7.392 52.83-17.675 60.069-17.675 1.498 0 .803-4.784-.784-5.393-.87-.334-1.657-.56-1.75-.504-.092.057-1.968.532-4.168 1.056m116.003.832c-.892 2.811-.061 3.686 4.236 4.459 51.892 9.331 114.215 42.797 150.761 80.956 36.128 37.722 60.197 78.208 73.478 123.594 3.04 10.389 4.005 12.551 5.713 12.803 3.347.493 3.395-2.15.244-13.37-26.596-94.717-106.404-174.603-202.663-202.862-25.8-7.574-30.854-8.462-31.769-5.58m-77.086 25.096c.743 5.599 1.833 7.993 5.583 12.255 3.01 3.421 9.651 7.006 11.597 6.259 2.645-1.015 1.318-3.102-3.388-5.332-5.596-2.65-9.292-7.824-9.985-13.978-.391-3.462-.87-4.291-2.483-4.291-1.825 0-1.94.443-1.324 5.087M319 346.202c-3.871 1.487-7.17 3.841-11.138 7.953-9.684 10.031-9.003-1.935-8.66 152.345l.298 134 2.8 5.703c3.922 7.985 11.148 14.237 19.402 16.787 6.255 1.932 9.215 2.01 76.02 2.01h69.511l-.69 6.75c-2.071 20.273-4.361 25.25-11.616 25.25-12.329 0-20.771 12.247-13.472 19.545l2.454 2.455 67.296-.014c72.342-.014 71.001.052 72.673-3.618 4.002-8.784-3.874-18.363-15.102-18.366-4.223-.002-4.887-.316-6.256-2.962-1.934-3.742-4.142-13.557-5.006-22.264l-.668-6.725 71.827-.275 71.827-.276 5.568-2.734c7.071-3.473 12.225-8.627 15.698-15.698l2.734-5.568v-273l-2.784-5.284c-3.551-6.739-9.637-12.826-15.567-15.567L701.5 344.5l-188.5-.205-188.5-.204-5.5 2.111m157.229 41.048c-.559.688-2.212 6.875-3.674 13.75-1.462 6.875-3.079 14.3-3.592 16.5-2.293 9.824-5.215 22.994-11.042 49.78-3.444 15.829-6.587 28.429-6.985 28-.398-.429-2.336-5.28-4.306-10.78-10.31-28.775-10.872-29.974-14.215-30.301-3.379-.33-2.17-2.371-14.794 24.968l-3.54 7.666-15.291-.475c-21.46-.667-31.184.394-31.617 3.447-.71 5.012.218 5.195 26.378 5.195 28.427 0 25.38 1.274 32.728-13.689 2.796-5.692 5.411-10.003 5.813-9.58.402.423 2.544 5.494 4.76 11.269 14.068 36.655 12.569 33.47 15.91 33.806 3.783.38 3.744.49 9.169-26.007 10.962-53.54 15.969-76.232 16.669-75.532.37.37 4.534 22.488 6.35 33.733.578 3.575 1.964 11.675 3.082 18 1.117 6.325 3.398 19.375 5.069 29 1.67 9.625 3.91 22.45 4.977 28.5 1.068 6.05 3.266 18.65 4.885 28 4.551 26.279 4.451 26.005 9.231 25.327 2.793-.396 3.059-1.148 10.358-29.327 2.991-11.55 7.356-28.2 9.699-37l4.26-16 55.813-.258 55.813-.259 2.928 2.928c10.506 10.506 25.51-4.395 15.23-15.125-4.477-4.673-12.852-3.449-17.17 2.511-1.328 1.833-3.348 1.886-59.214 1.551-50.412-.303-58.025-.155-59.287 1.152-.796.825-3.55 9.6-6.119 19.5-6.41 24.698-10.306 39.436-11.366 43-.981 3.296-1.618 2.397-2.48-3.5-.981-6.713-5.74-34.621-8.695-51a8655.817 8655.817 0 0 1-14.458-82.256c-2.417-14.165-4.672-26.203-5.009-26.75-.87-1.406-5.056-1.235-6.268.256m90.172 31.655c-7.835 3.559-11.842 14.788-8.315 23.302 2.912 7.03 19.422 24.057 27.596 28.46l3.182 1.715 7.658-5.866c8.317-6.37 17.914-16.596 20.782-22.144 9.379-18.141-10.964-35.626-26.368-22.665-2.923 2.46-3.227 2.524-4.148.879-2.737-4.89-13.46-6.826-20.387-3.681m-387.992 42.067c-4.437 1.795-5.036 6.501-1.542 12.122 1.723 2.771 3.133 5.459 3.133 5.972 0 .514.374.934.831.934.457 0 1.47 1.238 2.25 2.75s1.763 3.2 2.183 3.75c1.858 2.431 5.919 8.938 8.706 13.946l3.03 5.446v34.919c0 40.003.037 40.189 8 40.189 7.294 0 8-2.131 8-24.135 0-10.376.387-18.865.86-18.865s1.081 8.45 1.352 18.777c.591 22.546 2.049 26.043 10.204 24.484 6.411-1.226 6.67-2.902 6.383-41.261l-.258-34.5 4.294-7c9.609-15.662 12.454-20.016 13.289-20.333.482-.184.886-.859.898-1.5.012-.642.902-2.292 1.978-3.667 5.706-7.295-2.569-16.93-9.644-11.228-1.178.951-5.613 7.018-9.853 13.483-4.241 6.465-8.191 12.052-8.778 12.415-1.674 1.034-7.725 1.205-7.725.218 0-.488.839-.888 1.865-.888s3.06-.94 4.52-2.088c12.639-9.942.784-30.013-13.611-23.044-10.307 4.989-10.486 19.095-.307 24.134l4.033 1.996-4.032.001-4.031.001-8.469-12.947c-9.484-14.501-11.842-16.392-17.559-14.081m1.591 6.007c0 1.165 1.8 4.828 4 8.14 2.2 3.312 4 6.2 4 6.417 0 .217 3.037 5.023 6.75 10.679l6.75 10.285.5 36.5.5 36.5h5l.5-21 .5-21 5.599-.295 5.599-.296.578 11.722c.317 6.448.353 15.085.08 19.195-.645 9.684-.015 12.174 3.08 12.174 3.396 0 3.326.912 2.825-36.384-.365-27.145-.187-34.405.892-36.498.741-1.438 5.285-8.579 10.097-15.87 4.812-7.291 8.75-13.649 8.75-14.129 0-.481.675-1.434 1.5-2.119 1.661-1.378 2.007-4.569.59-5.444-2-1.237-4.064 1.058-12.522 13.925-6.99 10.633-9.363 13.509-11.443 13.869-2.299.397-13.622.291-19.753-.185-1.842-.143-14.372-16.617-14.372-18.896 0-.336-.748-1.438-1.661-2.447-.914-1.01-2.163-2.845-2.775-4.079-1.529-3.079-5.564-3.633-5.564-.764m32.27-1.264c-3.187.598-6.27 4.984-6.27 8.92 0 8.211 11.758 10.601 15.6 3.171 3.434-6.641-1.854-13.493-9.33-12.091m581.576 18.149c-11.861 3.292-27.214 13.067-35.742 22.755-5.208 5.917-5.169 6.375 1.12 13.025 29.297 30.977 67.913 31.92 98.026 2.394 4.368-4.283 7.75-8.442 7.75-9.531 0-5.243-22.725-22.821-35.324-27.323-9.668-3.454-25.976-4.055-35.83-1.32m-9.519 9.687c-6.56 3.274-11.253 6.569-16.738 11.75l-7.622 7.199 3.528 3.748c8.444 8.97 20.387 16.766 29.505 19.26 2.233.611 2.123.364-1.034-2.307-12.152-10.284-12.329-29.16-.375-40.178 5.639-5.198 3.962-5.076-7.264.528m42.414-1.624c12.2 8.838 13.192 28.207 2.019 39.4-4.997 5.006-4.657 5.233 3.094 2.061 5.627-2.303 16.35-9.953 21.958-15.665l5.311-5.411-7.723-7.212c-5.646-5.273-10.18-8.408-16.858-11.656-10.535-5.126-13.607-5.723-7.801-1.517m-23.825.385c-19.107 7.135-20.275 31.281-1.916 39.604 14.93 6.768 31.165-4.853 29.799-21.33-1.094-13.19-15.759-22.802-27.883-18.274m-.617 8.648c-9.526 5.807-8.156 20.638 2.274 24.621 8.816 3.367 18.427-2.942 18.427-12.097v-4.446l-4.397.603c-5.513.756-8.785-2.752-6.745-7.229.628-1.378 1.142-2.71 1.142-2.959 0-1.297-7.935-.18-10.701 1.507m-2.746 73.22c-.24.726-1.815 6.59-3.498 13.031-25.872 98.984-108.401 180.567-209.555 207.152-19.51 5.128-18.963 4.922-19.303 7.28-.504 3.499 2.029 3.408 17.485-.627 105.924-27.653 186.933-106.234 216.326-209.845 4.069-14.34 4.29-17.558 1.238-17.991-1.24-.176-2.452.274-2.693 1m-571.341 30.07c-.716.867-.65 2.322.216 4.75 34.335 96.278 113.138 167.394 213.253 192.452 10.785 2.699 14.847 3.121 15.763 1.638 1.595-2.581-1.124-4.052-12.27-6.639-52.957-12.291-109.803-44.172-143.675-80.576-17.807-19.138-27.389-31.499-40.984-52.875-6.708-10.546-17.116-31.404-21.955-44-6.434-16.745-7.475-18.228-10.348-14.75m76.942 21.5c.395 15.711 3.008 22.458 10.917 28.187 7.393 5.355-.899 5.152 197.929 4.847l185.5-.284 4.5-2.343c11.437-5.954 14.998-13.409 14.999-31.407L719 612H304.808l.346 13.75m200.954-1.087c-4.767 2.423-7.578 8.876-6.161 14.141 2.728 10.13 16.753 12.656 22.049 3.971 6.729-11.036-4.539-23.882-15.888-18.112m-37.185 67.409L467.347 697h44.826c24.655 0 44.827-.337 44.827-.75s-15.638-.75-34.75-.75c-43.254 0-50.299-.79-51.25-5.749-.444-2.313-.678-2.051-2.077 2.321m83.546-2.022c-.368.596-.399 1.353-.069 1.683.33.33.607-.037.615-.816.013-1.167.187-1.152.985.083.582.901.975 1.025.985.309.021-1.684-1.716-2.553-2.516-1.259m-105.396 15.585c-1.14 1.449-2.073 3.699-2.073 5V713h134v-2.545c0-1.4-1.105-3.65-2.455-5L574.091 703H449.145l-2.072 2.635m50.585 60.815c-.332.865.954 3.509 3.032 6.231 3.314 4.341 3.463 4.813 1.825 5.773-3.773 2.212-7.647 5.9-9.051 8.615-3.86 7.465.649 9.827 4.903 2.568 5.944-10.142 22.502-9.908 27.143.385 1.352 2.999 2.372 3.978 4.142 3.978 5.033 0 .452-11.013-6.033-14.506l-3.528-1.9 3.527-4.303c5.902-7.203 5.145-7.746-11.263-8.068-11.818-.231-14.215-.031-14.697 1.227m10.961 7.55c3.079 4.653 3.382 4.742 6.004 1.75 5.189-5.921 5.249-5.75-2.015-5.75h-6.636l2.647 4m-.625 14.912c-18.392 5.756-20.567 28.288-3.494 36.192 18.856 8.73 36.334-16.911 21.239-31.16-4.644-4.384-12.603-6.641-17.745-5.032m-1.576 6.057c-6.634 2.684-9.805 11.535-6.544 18.27 6.487 13.401 26.139 8.594 26.122-6.39-.01-9.145-10.542-15.535-19.578-11.88" fill-rule="evenodd"/>
<path fill="#23d9ce" stroke="#23d9ce" d="M508.357 200.75c-20.859 28.412-28.426 48.152-23.464 61.21 10.267 27.022 48.758 24.366 55.262-3.813 2.376-10.293-3.671-26.398-17.761-47.304-9.222-13.683-10.648-14.709-14.037-10.093M439.5 232.409c-99.625 24.96-178.888 97.445-212.1 193.965-2.474 7.189-2.403 8.626.424 8.626 1.163 0 2.281-1.673 3.511-5.25 21.062-61.286 56.855-109.473 109.912-147.968 26.887-19.509 68.734-38.42 100.253-45.306 15.266-3.336 15.5-3.419 15.5-5.515 0-2.637-1.785-2.489-17.5 1.448m127.5-1.428c0 1.243.838 2.162 2.25 2.468C653.065 251.581 718.746 297.086 763.458 368c12.817 20.328 27.876 54.268 33.056 74.5 1.885 7.363 3.565 10.187 5.39 9.059 1.6-.988 1.355-3.957-.984-11.951-29.935-102.297-111.682-180.699-216.002-207.163-15.958-4.048-17.918-4.208-17.918-1.464m-78.277 19.299c-2.961 7.716 8.478 23.641 17.027 23.704 2.762.02 3.172-3.752.5-4.606-6.87-2.196-10.988-6.943-12.729-14.674-1.151-5.113-3.65-7.417-4.798-4.424M458.5 344.963c-155.815.611-141.33-.306-150.304 9.512-8.844 9.677-8.196-2.183-8.196 150.102 0 133.364.015 134.388 2.068 139.874 2.453 6.557 8.708 13.228 15.623 16.661l4.809 2.388 72.25.275 72.25.276-.035 5.224c-.047 7.03-2.374 19.678-4.411 23.97-1.552 3.27-2.014 3.519-7.442 4.011-10.229.928-15.567 5.393-15.567 13.021 0 3.075.616 4.465 2.815 6.356l2.814 2.421 67.878-.277c75.869-.31 71.018.198 71.124-7.45.116-8.408-4.207-12.529-14.452-13.775-8.148-.991-10.952-6.72-12.383-25.302l-.636-8.25 70.897-.006c45.223-.003 72.231-.375 74.58-1.028 8.912-2.475 18.392-12.12 20.946-21.309.853-3.067 1.1-39.424.945-138.657l-.21-134.5-2.591-5.8c-3.097-6.934-10.168-13.712-17.028-16.32-5.658-2.152-26.928-2.274-245.744-1.417m17.542 41.487c-.662.797-2.533 7.66-4.157 15.25s-4.067 18.75-5.427 24.8c-1.361 6.05-5.323 24.001-8.805 39.891-4.186 19.103-6.587 28.251-7.087 27-.415-1.04-3.646-9.699-7.179-19.241-8.01-21.634-7.856-21.347-11.204-20.96-2.396.277-3.531 2.048-10.609 16.56L413.648 486h-44.602l-1.546 2.359c-4.178 6.377.032 7.641 25.44 7.641 28.558 0 25.844 1.06 32.963-12.871 5.491-10.744 6.017-11.439 6.911-9.129.533 1.375 2.637 6.775 4.675 12 13.134 33.663 12.645 32.727 16.464 31.515 2.624-.833 3.605-2.733 4.917-9.52 3.384-17.514 19.117-91.284 19.569-91.756.138-.144.993 4.131 1.899 9.5.907 5.368 2.524 14.711 3.594 20.761 1.07 6.05 6.504 37.04 12.076 68.866 10.971 62.672 10.852 62.137 14.052 63.153 4.722 1.499 5.992-2.333 24.364-73.519l2.194-8.5 8.941-.644c4.918-.354 29.811-.692 55.32-.75l46.379-.106 3.874 3.5c8.306 7.505 19.669 2.186 18.621-8.716-1.01-10.51-11.467-14.224-18.958-6.733L647.846 486h-58.3c-48.804 0-58.491.228-59.465 1.403-.64.771-4.505 14.159-8.588 29.75-4.083 15.591-7.831 29.697-8.329 31.347l-.905 3-.556-2.5c-.903-4.056-2.487-12.936-7.312-41-4.26-24.779-6.276-36.353-14.983-86-1.881-10.725-3.926-22.789-4.544-26.809-1.438-9.344-5.216-13.087-8.822-8.741m89.415 32.413c-16.936 10.328-9.104 32.506 17.901 50.692l4.967 3.345 5.723-4.015c8.008-5.617 21.543-19.765 23.919-25.002 6.008-13.239-1.817-26.828-15.467-26.863-5.097-.013-11.084 2.639-12.851 5.692-.708 1.224-1.293 1.057-3.5-.999-5.597-5.215-14.746-6.476-20.692-2.85m-388.9 44.36c-2.023 2.888-1.968 5.344.193 8.627a172.351 172.351 0 0 1 2.954 4.654c.662 1.098 4.871 7.813 9.354 14.922l8.15 12.926-.15 35.355-.15 35.355 2.969 2.969c3.226 3.226 4.736 3.558 8.466 1.859 4.106-1.871 4.657-4.773 4.657-24.52 0-14.384.28-18.444 1.25-18.122.921.306 1.382 5.621 1.75 20.174.488 19.274.558 19.806 2.861 21.669 3.059 2.474 6.22 2.42 9.504-.164l2.635-2.072v-71.697l5.154-8.329c2.835-4.581 7.765-12.219 10.955-16.973 3.19-4.754 6.071-9.723 6.402-11.043.913-3.639-2.789-7.813-6.929-7.813-3.863 0-4.654.793-11.952 12-3.045 4.675-6.712 10.188-8.148 12.25L223.87 489h-19.664l-7.93-12.256c-4.362-6.741-8.716-13.041-9.675-14-2.541-2.541-8.115-2.276-10.044.479m31.731-.594c-9.106 4.49-8.861 19.144.384 23.007 6.152 2.571 10.202 1.822 14.483-2.678 10.079-10.596-1.764-26.789-14.867-20.329m-28.038 2.033c-2.837 1.145-1.519 3.653 17.386 33.073l3.364 5.234v35.98c0 34.55.077 36.022 1.934 37.016 5.406 2.893 6.066.494 6.066-22.036V534h10.959l.271 20.642c.235 17.99.484 20.777 1.936 21.692 4.574 2.883 4.834.9 4.834-36.904v-35.325l6.157-9.803c3.387-5.391 8.3-12.989 10.918-16.885 2.618-3.896 4.851-7.721 4.961-8.5.429-3.025-.124-3.917-2.425-3.917-1.936 0-3.642 1.948-8.978 10.25-3.623 5.637-7.762 11.951-9.198 14.031l-2.609 3.781-11.663-.281-11.663-.281-8.149-12.392c-10.93-16.619-11-16.697-14.101-15.446m27.673 3.261c-7.219 7.219 1.371 18.719 10.393 13.914 3.361-1.791 4.617-3.987 4.652-8.135.068-8.082-9.187-11.637-15.045-5.779M800 482.622c-14.249 2.771-28.46 10.877-39.75 22.674-3.437 3.592-6.25 6.995-6.25 7.562 0 1.744 12.769 13.911 19.139 18.236 28.553 19.39 60.437 15.126 86.111-11.518 3.163-3.281 5.75-6.492 5.75-7.134 0-2.171-16.588-17.108-23.566-21.221-12.026-7.086-30.013-10.819-41.434-8.599m-8.687 7.317c-10.707 3.855-25.485 14.096-29.765 20.628-1.727 2.635-1.712 2.681 2.107 6.625 6.752 6.975 16.617 13.726 24.563 16.811 8.775 3.408 11.718 3.865 7.221 1.123-16.229-9.897-16.499-34.151-.493-44.305 5.115-3.245 3.811-3.561-3.633-.882m33.28.875c15.312 11.113 15.337 34.263.047 43.781-3.848 2.396-3.929 2.532-1.14 1.937 10.298-2.199 35.5-19.312 35.5-24.107 0-4.466-25.449-21.595-35.5-23.895-2.893-.661-2.854-.58 1.093 2.284m-24.363 2.301c-16.492 8.163-17.059 30.31-.981 38.322 21.708 10.818 42.526-14.321 26.939-32.531-6.62-7.733-17.245-10.103-25.958-5.791m4.185 7.306c-9.55 4.158-10.979 17.587-2.482 23.313 8.88 5.984 21.86-.885 20.876-11.048-.308-3.18-.48-3.25-4.847-2.003-3.881 1.109-9.231-7.162-5.946-9.193 3.663-2.264-2.777-3.169-7.601-1.069m-4.146 73.829c-.536.688-2.179 6.124-3.65 12.08-25.238 102.19-113.513 186.352-221.871 211.534-5.215 1.212-7.322 2.162-7.562 3.411-.583 3.025 2.726 3.092 14.169.289 105.942-25.959 189.221-105.749 219.127-209.945 3.498-12.189 4.29-16.189 3.414-17.245-1.414-1.703-2.369-1.736-3.627-.124M229.25 603.703c-2.01.745-1.538 2.699 3.891 16.103 37.082 91.549 111.148 156.167 207.151 180.727 10.684 2.733 15.094 3.481 15.882 2.693 2.13-2.13-.041-4.057-5.86-5.2-93.099-18.283-177.733-90.067-212.844-180.526-4.828-12.437-6.105-14.581-8.22-13.797m75.76 21.547c.012 16.694 2.552 23.186 11.49 29.369 6.541 4.525.691 4.393 195.757 4.394 185.504.001 185.933-.003 190.583-2.057 12.158-5.37 16.137-13.18 16.15-31.706L719 612H305l.01 13.25m198.944 1.5c-6.24 5.576-4.73 16.23 2.807 19.807 9.708 4.607 19.694-4.588 16.266-14.976-2.585-7.833-12.814-10.424-19.073-4.831m-32.287 47c-.347 4.813-1.54 12.007-2.649 15.987-1.11 3.981-2.018 7.468-2.018 7.75 0 .739 72.952.622 82.641-.133l8.14-.634-1.372-3.284c-1.672-4.001-4.409-19.253-4.409-24.567V665h-79.701l-.632 8.75m-22.779 29.718c-3.455 1.92-5.619 6.947-3.887 9.033 1.28 1.542 128.489 2.399 132.417.892 2.483-.953 1.927-5.721-.987-8.458l-2.57-2.414-61.18-.252c-51.938-.214-61.576-.033-63.793 1.199m50.362 62.194c-2.041.824-1.457 2.78 2.3 7.7l3.55 4.649-2.3.884c-5.044 1.937-11.603 10.571-10.404 13.695.915 2.383 2.467 1.588 5.127-2.626 7.148-11.324 24.479-10.896 28.675.708.767 2.12 1.868 3.328 3.034 3.328 5.852 0 .593-10.579-7.707-15.504-1.512-.897-1.312-1.482 1.882-5.5 3.954-4.975 4.365-6.486 2.011-7.389-1.877-.72-24.363-.673-26.168.055m8.87 8.338c3.88 4.827 3.993 4.838 7.825.75 4.211-4.493 3.994-4.75-3.992-4.75h-7.047l3.214 4m-3.639 16.394c-6.683 2.912-12.252 12.469-11.165 19.163 3.003 18.51 26.262 23.052 35.402 6.913 8.666-15.3-7.947-33.174-24.237-26.076m3.019 3.815c-16.966 5.947-9.062 31.52 8.298 26.845 13.393-3.606 13.664-23.332.37-27.024-4.327-1.202-4.752-1.193-8.668.179" fill-rule="evenodd"/>
<path fill="#26c2d8" stroke="#26c2d8" d="M521.609 214.725c-.215.215-.159 1.279.125 2.365.579 2.217 4.266 4.711 4.266 2.886 0-.602.515-.776 1.144-.387.629.389.351-.635-.617-2.274-1.548-2.62-3.736-3.773-4.918-2.59m46.058 14.942c-.367.366-.653 1.379-.637 2.25.025 1.3.221 1.257 1.092-.242 1.077-1.852.765-3.228-.455-2.008m-33.961 4.351c-.439 1.677-1.11 2.109-2.651 1.707-1.573-.412-2.207.033-2.668 1.868-.362 1.443-1.335 2.407-2.429 2.407-1.003 0-4.217 2.356-7.141 5.237-2.925 2.88-7.004 6.008-9.067 6.951-2.062.943-3.75 2.186-3.75 2.763s-.886 1.049-1.969 1.049c-1.226 0-1.776.501-1.458 1.329.377.984-.54 1.29-3.532 1.178-2.222-.083-4.041.138-4.041.491 0 1.868 7.51 9.015 10.516 10.007 3.735 1.233 4.415 2.978 1.954 5.02-1.187.985-2.1 1.009-4.075.109-1.399-.638-2.958-.904-3.462-.593-.504.312-1.708.107-2.675-.456-1.08-.629-1.253-1.036-.449-1.055.73-.017.994-.539.597-1.181-.503-.815-1.056-.68-1.891.461-1.066 1.459-1.411 1.466-3.597.08-1.33-.844-.843-.104 1.082 1.645 14.398 13.079 38.636 7.578 45.471-10.32 2.451-6.418 1.742-17.275-1.638-25.08-2.138-4.937-2.633-5.509-3.127-3.617m-3.627 4.565c.048 1.165.285 1.402.604.605.289-.722.253-1.585-.079-1.917-.332-.332-.568.258-.525 1.312m74.307 3.613c.998.559 2.188.629 2.659.158.471-.472-.338-.924-1.806-1.011-2.287-.136-2.406-.016-.853.853m6.736-.292c-.758.48-1.069 1.373-.691 1.984 1.05 1.7 2.864 1.323 2.182-.453-.471-1.229-.118-1.43 1.643-.935 1.758.494 1.919.404.744-.419-1.82-1.274-2.124-1.288-3.878-.177m-124.043 10.679c.048 1.165.285 1.402.604.605.289-.722.253-1.585-.079-1.917-.332-.332-.568.258-.525 1.312m7 0c.048 1.165.285 1.402.604.605.289-.722.253-1.585-.079-1.917-.332-.332-.568.258-.525 1.312M632 252c0 .55.477 1 1.059 1s.781-.45.441-1-.816-1-1.059-1-.441.45-.441 1m5.431-.112c.306.496-.202 1.194-1.131 1.55-1.814.697 2.097 3.33 5.782 3.892.947.145 2.448.865 3.335 1.601 1.405 1.166 1.569 1.061 1.282-.823-.182-1.189-1.201-2.732-2.265-3.43-2.967-1.947-7.63-3.804-7.003-2.79M638.5 254c.34.55.816 1 1.059 1s.441-.45.441-1-.477-1-1.059-1-.781.45-.441 1m11.414 5.261c-.791.681-1.252 1.133-1.025 1.005.227-.129.952.501 1.609 1.401.95 1.299 1.363 1.367 2.004.33.533-.863.416-1.064-.347-.592-.682.421-1.155.083-1.155-.825 0-1.295.412-1.349 2.613-.346 1.438.655 2.113 1.357 1.5 1.562-2.271.757-.885 1.994 8.637 7.709 65.435 39.272 116.208 106.283 134.218 177.142 1.096 4.312 3.681 6.43 4.678 3.832 1.694-4.414-10.031-36.991-21.769-60.479-21.801-43.627-51.541-78.885-91.377-108.331-8.847-6.54-11.324-7.896-9.899-5.419.418.726.338.901-.191.417-.5-.459-.916-1.359-.924-2-.009-.705-1.395-1.082-3.5-.953-2.408.148-3.037-.064-2.034-.684.799-.494 1.811-.676 2.25-.405.439.271.798.278.798.016 0-1.09-7.047-4.73-8.007-4.137-.573.355-.919.144-.768-.468.5-2.022-15.649-10.207-17.311-8.775M498 261c0 .55.45 1 1 1s1-.45 1-1-.45-1-1-1-1 .45-1 1m-33.933 84.37c.238.221 13.913.695 30.388 1.054 31.122.678 40.354 1.524 17.962 1.646-14.952.082-20.304 1.239-10.478 2.266 3.495.365 10.563.664 15.708.664 10.047 0 10.703.383 6.853 4-2.06 1.935-2.5 3.287-2.5 7.674 0 2.929-.45 5.326-1 5.326s-1 .707-1 1.571c0 1.516-2.255 4.429-3.429 4.429-.314 0-.571-1.35-.571-3 0-2.193-.47-2.998-1.75-2.992-2.228.01-4.25 4.324-4.25 9.069 0 2.023-.648 4.216-1.441 4.874-.792.657-1.194 1.837-.893 2.622.302.785.05 1.427-.559 1.427-.609 0-1.107.675-1.107 1.5 0 1.133-1.222 1.5-5 1.5s-5 .367-5 1.5c0 .825-.607 1.5-1.348 1.5-2.191 0-4.265 6.944-3.637 12.178.32 2.668.174 4.439-.339 4.122-1.607-.993-2.626 2.104-2.041 6.2.749 5.245 2.811 17.34 5.283 31 1.095 6.05 4.499 25.625 7.565 43.5 7.629 44.472 9.465 55.004 10.199 58.5l.63 3 .863-3c1.194-4.147 8.346-31.489 12.033-46 1.676-6.6 3.735-12.788 4.575-13.75 1.421-1.628 5.562-1.752 59.622-1.778l58.095-.028 2.899-2.954c4.866-4.959 12.476-5.206 17.127-.555 1.294 1.294 2.554 2.152 2.8 1.906.246-.246.305 2.094.133 5.2-.173 3.106-.556 5.889-.851 6.185-.296.295-.059 1.432.527 2.526.677 1.265.695 1.761.05 1.362-.558-.344-1.204-.286-1.436.13-.232.416-.251.106-.042-.688.286-1.088-.096-1.014-1.546.298-4.961 4.49-14.244 3.688-17.491-1.51-1.096-1.756-3.809-1.844-56.911-1.844-30.667 0-55.759.182-55.759.405 0 .223-3.153 12.26-7.007 26.75-3.854 14.49-8.619 32.42-10.588 39.845-3.922 14.783-4.531 16-8.004 16-4.599 0-4.887-1.154-15.441-62-2.991-17.241-7.255-41.2-8.9-50-.462-2.475-.89-3.488-.95-2.25-.162 3.317-2.477 2.735-3.979-1-.821-2.04-1.506-2.742-1.841-1.884-.294.751.08 1.745.83 2.208 1.086.671 1.11 1.096.122 2.084-.989.989-1.242.896-1.242-.458 0-.955-.77-1.7-1.756-1.7-.989 0-2.336-1.31-3.084-3-.73-1.65-2.013-3-2.851-3-.978 0-1.306-.566-.916-1.582.334-.87.607-2.471.607-3.559 0-1.087.45-1.699 1-1.359.55.34 1 .141 1-.441s-.582-1.059-1.294-1.059c-1.389 0-1.874 1.881-7.225 28-8.174 39.898-7.843 38.663-10.573 39.529-3.603 1.144-5.659-.486-7.97-6.314-1.246-3.143-2.559-6.165-2.919-6.715-.359-.55-1.495-3.562-2.524-6.693s-2.231-5.47-2.671-5.198c-.441.272-.547-.166-.237-.974.31-.808-.153-2.744-1.029-4.302-1.258-2.236-1.565-2.412-1.46-.833.073 1.1.08 2.548.017 3.219-.161 1.706-2.907.466-3.442-1.554-.403-1.52-.451-1.522-.557-.022-.168 2.374-3.052 3.191-3.848 1.09-1.462-3.863-2.997-4.303-4.271-1.225-2.67 6.446-5.207 7.992-13.116 7.992-6.738 0-9.105 1.205-3.094 1.575 5.332.328 5.699.594 2.713 1.961-1.65.756-6.6 1.473-11 1.594-4.858.133-6.331.37-3.75.602 3.706.334 6.297 2.268 3.038 2.268-.667 0-2.13 1.148-3.25 2.55-1.986 2.486-2.12 2.51-5.268.937-1.777-.887-3.491-2.035-3.809-2.55-.958-1.55-2.46-1.056-2.472.813-.007 1.064-1.654 2.534-4.202 3.75l-4.191 2 6.283.3c8.196.391 7.014 3.2-1.346 3.2-3.79 0-5.677.502-6.878 1.829-2.395 2.647-2.081 3.171 1.9 3.171h3.555l-.305 4.672c-.379 5.812-2.805 7.273-2.805 1.689v-3.805l-2.25 2.255c-1.83 1.834-1.99 2.416-.854 3.121 1.123.697.887 1.376-1.204 3.467-2.608 2.607-5.692 3.475-5.692 1.601 0-.55.707-1 1.571-1 1.516 0 4.429-2.255 4.429-3.429 0-.314-2.025-.571-4.5-.571H363v4c0 3.778-.167 4-3 4s-3 .222-3 4c0 3.6-.25 4-2.5 4-1.375 0-2.5.498-2.5 1.106 0 .608-1.173 2.5-2.608 4.204-2.222 2.641-2.539 3.806-2.147 7.883.655 6.819-.994 8.807-7.302 8.807-2.719 0-4.943.45-4.943 1s2.025 1 4.5 1 4.5.45 4.5 1-1.8 1-4 1c-3.818 0-4 .143-4 3.142v3.143l-6.147-.643c-3.38-.353-6.98-.642-8-.642-1.451 0-1.853-.759-1.853-3.5 0-1.925-.45-3.5-1-3.5s-1 1.8-1 4c0 3.905-.083 4-3.5 4-3.268 0-3.505.216-3.57 3.25-.058 2.666-.216 2.891-.878 1.25-.444-1.1-.696-4.25-.561-7 .136-2.75.055-3.312-.18-1.25-.234 2.063-.897 3.75-1.473 3.75-.7 0-.812 2.645-.338 8 .446 5.043.346 8-.272 8-.613 0-1.138-12.581-1.399-33.564-.27-21.75-.785-33.805-1.461-34.25-1.809-1.189-2.616-5.338-3.343-17.186-.388-6.325-.665 21.35-.616 61.5l.091 73 2.672 5.063c3.195 6.053 9.262 11.771 15.658 14.757 4.629 2.161 5.302 2.184 76.67 2.68l72 .5-.316 5.5c-.57 9.918-2.224 18.423-4.473 23l-2.211 4.5-6.5.571c-7.925.695-10.444 2.169-13.113 7.672-2.018 4.159-2.022 4.317-.223 8l1.836 3.757 69.172.257c77.827.289 72.328.847 72.328-7.343 0-7.349-4.746-11.676-13.413-12.228-6.618-.421-6.683-.454-8.692-4.392-2.223-4.357-4.53-15.212-5.057-23.794l-.338-5.5 72.5-.5 72.5-.5 5.187-2.735c6.392-3.37 11.533-8.548 14.533-14.638l2.28-4.627.264-134.945c.294-150.277.702-140.993-6.594-150.219-2.147-2.714-6.204-6.152-9.248-7.836l-5.422-3-119.433-.266c-65.688-.146-119.238-.085-119 .136M512 376.969c0 .532.675.709 1.5.393.825-.317 1.5-.753 1.5-.969 0-.216-.675-.393-1.5-.393s-1.5.436-1.5.969m-32 2.702c0 .919-.786 2.54-1.747 3.601-1.69 1.868-1.65 1.924 1.25 1.723 5.057-.349 6.258-.059 6.923 1.672.352.917.148 2.155-.452 2.75-.787.78-.933.662-.521-.419.328-.865-.239-2.008-1.336-2.693-1.821-1.137-1.841-1.059-.44 1.749 1.24 2.485 1.767 2.778 3.415 1.897 1.072-.574 2.324-.812 2.782-.529 1.717 1.061 10.126-2.967 10.126-4.851 0-1.133-3.847-.542-4.417.679-.466 1-.7 1-1.166 0-.973-2.085-4.417-1.5-4.417.75 0 1.1-.45 2-1 2-2.003 0-.927-3.265 1.965-5.968l2.966-2.77-4.605-.631c-7.436-1.019-9.326-.808-9.326 1.04m-7.643 11.08c-.13 6.099-.063 6.344.69 2.546.458-2.312 1.294-5.066 1.858-6.119 1.059-1.98.561-3.178-1.322-3.177-.656 0-1.139 2.659-1.226 6.75m12.722 3.916c.043 1.558.307 2.268.585 1.577.279-.691.962-.975 1.518-.632.573.355.86-.148.664-1.161-.598-3.086-2.854-2.91-2.767.216M494 397c0 .55.45 1 1 1s1-.45 1-1-.45-1-1-1-1 .45-1 1m-8 2.492c0 .829.47 1.508 1.045 1.508.665 0 .791 1.355.347 3.725-.65 3.465-.583 3.609.955 2.071 2.254-2.254 2.08-6.048-.347-7.564-1.668-1.042-2-.999-2 .26m6.232 3.508c0 1.925.206 2.712.457 1.75.252-.962.252-2.538 0-3.5-.251-.962-.457-.175-.457 1.75m-22.153.583c.048 1.165.285 1.402.604.605.289-.722.253-1.585-.079-1.917-.332-.332-.568.258-.525 1.312m-5.963 7.467c-.064 1.403-.656 3.09-1.316 3.75-.933.933-.822 1.2.5 1.2 2.475 0 2.08 2.994-.789 5.989-2.174 2.269-2.368 3.023-1.529 5.947.528 1.842.722 3.735.43 4.206-.292.472-.086.858.456.858s1.152.788 1.356 1.75c.203.962 1.156-1.625 2.118-5.75.961-4.125 2.177-9.127 2.703-11.116 1.39-5.262 1.275-8.604-.245-7.084-1.663 1.663-2.575 1.501-3.111-.55-.304-1.163-.496-.895-.573.8m103.625 6.379c-11.533 4.115-15.277 17.827-7.975 29.206 5.316 8.284 24.905 26.213 28.772 26.333 2.116.066 17.726-13.397 23.535-20.298 7.509-8.92 9.806-15.459 7.865-22.39-3.684-13.159-18.736-18.211-28.865-9.688l-3.018 2.54-2.778-2.584c-4.67-4.344-10.966-5.463-17.536-3.119m-89.706 1.071c-.067.55-.505 2.8-.974 5-.468 2.2-1.799 8.437-2.956 13.86-2.448 11.469-2.39 10.934-1.105 10.14.55-.34 1.01-.029 1.022.691.012.72.902 2.434 1.978 3.809 1.146 1.465 1.965 4.077 1.978 6.309.023 3.997 1.965 4.351 2.092.382.068-2.112.101-2.119.93-.191.752 1.749.868 1.641.93-.857.052-2.113.46-2.707 1.57-2.281 1.941.744 1.997 1.424-1.554-18.622-3.061-17.278-3.677-20.15-3.911-18.24m-22.785 27.162c-1.43.577-1.699 2.338-.357 2.338.491 0 1.152-.675 1.469-1.5.316-.825.477-1.464.357-1.421-.121.043-.781.306-1.469.583m-27.76 3.354c-.346.559-1.16.698-1.809.308-.673-.403-.59.02.191.984 1.081 1.332 1.116 2.002.164 3.148-.664.801-.875 1.996-.468 2.655.469.758.317.936-.413.484-.635-.392-1.155-.263-1.155.287 0 2.325 1.973 1.947 3.193-.612 1.883-3.948 7.019-4.402 9.36-.829 1.722 2.628 3.447 3.379 3.447 1.5 0-.582-.45-.781-1-.441s-1-.028-1-.819c0-.79-.681-2.001-1.512-2.691-1.126-.934-1.231-1.595-.412-2.581.854-1.029.533-1.469-1.431-1.962-3.075-.772-4.754.105-3.994 2.085.664 1.73-1.209 1.992-2.246.313-.44-.711-.275-.883.429-.448.74.458.933.159.548-.845-.698-1.819-1.039-1.916-1.892-.536m32.065 1.492c-.551 2.102-.973 2.546-1.42 1.492-.811-1.915-2.975-2.378-4.643-.993-.944.783-1.416.725-1.732-.215-.634-1.885-3.76.883-3.76 3.33 0 2.051-1.981 2.663-2.03.628-.017-.69-.489-.463-1.055.508-.563.967-.751 2.199-.417 2.738.333.54.007.751-.725.47-.732-.28-2.182.113-3.224.874-1.846 1.351-1.835 1.529.474 7.218 2.345 5.776 6.984 12.191 5.551 7.675-.525-1.655-.239-1.892 1.809-1.5 2.337.447 2.379.593 1.064 3.739-.752 1.801-1.086 3.556-.741 3.901.345.345.102.627-.539.627-1.35 0-1.592 3.619-.296 4.42.479.296 1.159 1.982 1.512 3.747.475 2.374.934 2.916 1.766 2.084.832-.832.558-2.083-1.053-4.814-2.026-3.432-2.063-3.816-.539-5.5.902-.996 1.336-2.402.967-3.124-.37-.722-.015-.509.788.473 1.046 1.279 1.243 2.755.691 5.2-.423 1.878-.501 3.682-.173 4.01.691.692 9.35-37.455 8.845-38.97-.185-.556-.689.336-1.12 1.982m-23.555.885c0 .216.698.661 1.552.989.89.341 1.291.173.941-.393-.587-.951-2.493-1.406-2.493-.596m48.07 6.298c.039.445.457 1.709.93 2.809.829 1.928.862 1.921.93-.191.038-1.205-.38-2.469-.93-2.809-.55-.34-.968-.254-.93.191m-239.803 5.199c.084 1.114.679 1.684 1.45 1.388 2.17-.832 4.476 1.817 3.828 4.398-.466 1.857-.178 2.324 1.436 2.324 1.577 0 2.019-.657 2.019-3 0-1.65-.477-3-1.059-3s-.795-.427-.472-.95c.716-1.159-2.595-3.05-5.341-3.05-1.348 0-1.957.618-1.861 1.89m178.192 2.177c-.363.586-.445 1.281-.183 1.543s.743-.218 1.069-1.067c.676-1.762.1-2.072-.886-.476M226.195 473.5c.02 1.65.244 2.204.498 1.231.254-.973.237-2.323-.037-3-.274-.677-.481.119-.461 1.769m21.818-.529c-1.179.745-1.037.907.68.777 1.193-.09 1.948-.52 1.679-.956-.599-.969-.537-.973-2.359.179m182.987.338c0 .72.669 2.182 1.486 3.25 1.36 1.776 1.394 1.664.402-1.309-1.132-3.393-1.888-4.171-1.888-1.941m-16.75 3.78c-1.339.504-2.25 1.687-2.25 2.923 0 1.422-.551 1.983-1.75 1.782-1.019-.171-1.75.332-1.75 1.206 0 3.368 5.495 1.948 7.072-1.827 1.822-4.359 1.56-5.167-1.322-4.084m30.75.852c0 .518.445 1.216.989 1.552.566.35.734-.051.393-.941-.665-1.732-1.382-2.049-1.382-.611m-10.921 2.642c.048 1.165.285 1.402.604.605.289-.722.253-1.585-.079-1.917-.332-.332-.568.258-.525 1.312m366.168 2.473c-15.272 2.7-33.449 13.573-43.133 25.8l-3.27 4.129 5.828 6.125c29.181 30.666 66.034 31.796 96.628 2.962 9.799-9.235 9.762-9.069 3.518-15.67-17.187-18.173-39.461-26.902-59.571-23.346M360 487.969c0 .532.675.709 1.5.393.825-.317 1.5-.753 1.5-.969 0-.216-.675-.393-1.5-.393s-1.5.436-1.5.969m434.306.55C782.54 492.226 760 507.979 760 512.495c0 4.826 22.18 20.455 33.932 23.909 7.762 2.281 8.273 1.981 2.381-1.398-17.93-10.283-17.281-36.675 1.117-45.406 5.957-2.827 4.27-3.411-3.124-1.081m30.165 2.601c15.993 10.876 15.085 35.434-1.626 43.959-7.746 3.952-2.871 3.43 7.981-.855 9.453-3.732 28.174-18.255 28.174-21.855 0-4.729-25.93-22.194-35.5-23.912l-4-.718 4.971 3.381m-606.721-1.458c.688.278 1.813.278 2.5 0 .688-.277.125-.504-1.25-.504s-1.937.227-1.25.504m147.329 1.921c.048 1.165.285 1.402.604.605.289-.722.253-1.585-.079-1.917-.332-.332-.568.258-.525 1.312m436.921.142c-15.082 5.7-19.598 24.73-8.502 35.826 17.865 17.865 47.278-2.47 35.709-24.687-4.824-9.263-17.951-14.637-27.207-11.139m-435.267 3.399c.679.684 1.486.991 1.793.683.308-.308-.247-.867-1.233-1.243-1.425-.542-1.54-.428-.56.56m-135.274 1.943c-.363.586-.445 1.281-.183 1.543s.743-.218 1.069-1.067c.676-1.762.1-2.072-.886-.476M377 497c1.974 1.276 7 1.276 7 0 0-.55-1.913-.993-4.25-.985-3.112.012-3.849.275-2.75.985m429.208 2.701c-7.949 1.557-12.41 13.682-7.614 20.693 6.729 9.834 24.48 4.828 24.391-6.878-.022-2.792-1.533-5.056-2.419-3.623-2.571 4.16-9.809-.641-9.405-6.238.316-4.381-.292-4.866-4.953-3.954m-367.389.807c-1.038 1.048.214 3.492 1.788 3.492.766 0 1.386-.788 1.378-1.75-.013-1.4-.192-1.471-.899-.355-.72 1.136-.949 1.073-1.235-.34-.193-.954-.657-1.425-1.032-1.047M200.252 506.5c.011 2.2.216 2.982.455 1.738.239-1.244.23-3.044-.02-4s-.446.062-.435 2.262m28.955-.185c-.106 1.752.247 3.86.785 4.685.721 1.106.981.399.993-2.691.018-4.936-1.497-6.635-1.778-1.994m176.606-2.632c.721.289 1.584.253 1.916-.079.332-.332-.258-.568-1.312-.525-1.165.048-1.402.285-.604.604M227.22 535.781c-.19 27.91-.017 32.36 1.28 32.857.825.317 1.5.964 1.5 1.438 0 .473-.753.572-1.674.219-1.288-.494-1.519-.24-1.003 1.104.926 2.413-.868 5.375-3.571 5.895l-2.252.434 2.25.136c1.238.075 2.25.652 2.25 1.282s1.125-.068 2.5-1.551l2.5-2.698-.16-22.699c-.088-12.484-.313-21.123-.499-19.198-1.435 14.795-1.867 13.429-2.371-7.5-.528-21.96-.529-21.942-.75 10.281M303.158 510c0 1.375.227 1.938.504 1.25.278-.687.278-1.812 0-2.5-.277-.687-.504-.125-.504 1.25m-93.736 44c0 11.275.146 15.888.324 10.25.178-5.638.178-14.862 0-20.5s-.324-1.025-.324 10.25m-9.218-1.5c-.235 17.291-.743 21.903-2.304 20.938-.491-.303-.51.442-.044 1.7.938 2.536 5.144 5.793 5.144 3.984 0-.617.477-1.122 1.059-1.122s.781.45.441 1 .309 1 1.441 1c1.132 0 2.059-.477 2.059-1.059s.45-.781 1-.441 1 .141 1-.441-.477-1.059-1.059-1.059-.76-.483-.395-1.074c.365-.59-.285-.481-1.445.243-4.931 3.08-5.551.98-6.133-20.776l-.532-19.893-.232 17m13.609-15.817c.721.289 1.584.253 1.916-.079.332-.332-.258-.568-1.312-.525-1.165.048-1.402.285-.604.604M211.5 539c-.34.55-.141 1 .441 1s1.059-.45 1.059-1-.198-1-.441-1-.719.45-1.059 1m4.632 18.917c-.14 13.169.246 15.087 1.223 6.083.328-3.025.652-5.95.72-6.5.069-.55.485.125.925 1.5.595 1.858.826.895.9-3.75.087-5.46-1.667-9.346-2.032-4.5-.072.962-.463.175-.868-1.75-.482-2.29-.782.791-.868 8.917m12.493 1.208c-.933 4.666-.755 8.875.375 8.875.556 0 1-2.667 1-6 0-6.667-.435-7.576-1.375-2.875M211.232 563c0 1.925.206 2.712.457 1.75.252-.962.252-2.538 0-3.5-.251-.962-.457-.175-.457 1.75m96.04 1c0 2.475.195 3.487.434 2.25.238-1.237.238-3.263 0-4.5-.239-1.237-.434-.225-.434 2.25m491.704 14.25c-4.287 16.557-5.786 21.55-9.529 31.75-34.414 93.788-117.493 167.206-212.194 187.519-8.383 1.798-11.5 3.634-9.524 5.61.726.726 4.894.108 13.662-2.025 105.701-25.71 188.089-104.354 218.588-208.656 4.612-15.769 4.911-18.448 2.06-18.448-1.469 0-2.239 1.069-3.063 4.25m-581.302-2.531c-.381.616.019 1.831.888 2.7 1.973 1.973 4.178 2.178 2.569.239-.612-.738-.78-1.71-.372-2.16.407-.45.217-.519-.424-.152-.64.367-1.345.123-1.567-.541-.29-.87-.595-.894-1.094-.086m9.198 1.031c-1.243 1.586-1.208 1.621.378.378.963-.755 1.75-1.543 1.75-1.75 0-.823-.821-.294-2.128 1.372m93.128.75c0 1.083 1.111 1.5 4 1.5 2.889 0 4-.417 4-1.5s-1.111-1.5-4-1.5c-2.889 0-4 .417-4 1.5m-10.842 8.5c0 1.375.227 1.938.504 1.25.278-.687.278-1.812 0-2.5-.277-.687-.504-.125-.504 1.25m-80.589 18.889c-.623 1.008 5.907 18.796 7.548 20.561.485.523.883 1.549.883 2.28 0 1.784 13.254 28.528 15.002 30.27.275.275 1.166 1.85 1.979 3.5 1.506 3.055 16.853 26.588 17.934 27.5.326.275 3.259 3.875 6.517 8C317.777 746.812 375.88 784.084 439 800.001c14.897 3.756 17.327 3.995 17.788 1.746.419-2.04 1.453-1.663-15.737-5.724-91.314-21.57-172.414-93.179-205.013-181.023-3.618-9.751-5.836-12.753-7.469-10.111m75.855 7.45c-.347.902-.456 7.158-.243 13.901.452 14.354 2.09 19.084 9.001 25.995 8.511 8.511-8.711 7.863 200.369 7.545l184.949-.28 4.589-2.123c11.954-5.529 16.135-13.561 16.723-32.127l.42-13.25-40.866-.008c-22.476-.004-115.892-.297-207.589-.651-154.011-.594-166.772-.518-167.353.998m-68.818 9.077c.335.871 1.047 1.584 1.584 1.584 1.315 0 .492-2.273-1.003-2.771-.731-.244-.954.214-.581 1.187m270.275 4.087c-3.596 1.954-6.249 7.842-5.53 12.272 2.209 13.613 23.104 12.068 23.104-1.709 0-9.462-9.306-15.056-17.574-10.563M238 625.941c0 .518.445 1.216.989 1.552.566.35.734-.051.393-.941-.665-1.732-1.382-2.049-1.382-.611m1 4.118c0 .582.45.781 1 .441s1-.816 1-1.059-.45-.441-1-.441-1 .477-1 1.059m233.757 34.568c-.283.48-.842 4.473-1.244 8.873-.67 7.338-3.1 18.473-4.964 22.75-.72 1.652 1.814 1.75 45.451 1.75 41.164 0 46.15-.168 45.624-1.537-1.995-5.2-3.807-13.327-4.886-21.918l-1.238-9.863-39.115-.464c-21.79-.258-39.342-.077-39.628.409m-25.901 40.363c-2.163 2.163-2.903 3.755-2.673 5.75l.317 2.76 67.14.257c73.812.283 69.446.657 67.209-5.759-2.134-6.123-.721-5.998-67.876-5.998h-61.127l-2.99 2.99m51.618 62.053c-.355.573.969 3.011 2.941 5.418 4.348 5.307 4.335 4.899.224 7.324-6.202 3.66-11.823 13.215-7.774 13.215 1.1 0 2.275-.865 2.61-1.922.336-1.057 2.392-3.532 4.571-5.5 7.711-6.967 23.331-3.892 25.571 5.033.417 1.661 1.308 2.389 2.922 2.389 4.51 0-.767-10.606-6.551-13.166-3.748-1.659-3.735-1.838.518-7.41 1.929-2.527 3.252-5.006 2.941-5.509-.801-1.297-27.167-1.177-27.973.128m6.777 2.957c1.758 3.529 5.61 7.978 6.915 7.988 1.442.01 7.834-6.786 7.834-8.331 0-.305-3.375-.466-7.499-.356-4.125.109-7.387.424-7.25.699m-.867 20.857c-7.514 3.515-12.208 12.689-10.445 20.416 4.697 20.587 34.831 18.582 36.852-2.453 1.313-13.665-13.725-23.894-26.407-17.963m2.116 3.555c-11.117 4.941-11.294 20.462-.3 26.183 6.69 3.481 16.304-.399 19.253-7.77 4.817-12.039-7.145-23.661-18.953-18.413" fill-rule="evenodd"/>
<path fill="#28a9e4" stroke="#28a9e4" d="M538.178 258.086c-.685 1.098-.921 2.522-.523 3.165.445.72 1.021.052 1.501-1.741.959-3.586.652-4.034-.978-1.424m-2.9 6.036c-.617.617-.889 1.854-.606 2.75.405 1.275.306 1.334-.453.271-.688-.964-1.17-1.031-1.663-.233-.382.617-1.113.864-1.625.547-.512-.316-.931.124-.931.978 0 3.424 7.874-1.201 7.978-4.685.033-1.11-1.418-.91-2.7.372m-6.199 7.597c-.043.67-.708.977-1.478.681-.769-.295-1.7-.048-2.069.548-.369.597-1.047.852-1.508.567-.461-.285-.602.383-.314 1.484.304 1.163.031 2.001-.652 2.001-.647 0-.929-.399-.628-.887.301-.487-.235-1.478-1.191-2.201-1.456-1.102-1.543-1.095-.536.039.835.94.901 1.921.215 3.202-.736 1.376-.641 1.847.375 1.847 1.38 0 10.707-5.796 10.707-6.653 0-.256-.412-.211-.915.1-.503.311-1.142 0-1.421-.691-.381-.946-.526-.956-.585-.037m-18.746 4.737c0 .801.383 1.22.85.931.467-.289.591-.944.274-1.456-.808-1.308-1.124-1.161-1.124.525M502.5 278c-.34.55.11 1 1 1s1.34-.45 1-1c-.34-.55-.79-1-1-1-.21 0-.66.45-1 1m217.825 30.658c.362.362.243 1.158-.264 1.768-.614.74 1.257 3.354 5.615 7.842 7.14 7.353 7.324 7.481 7.324 5.11 0-1.379.263-1.426 1.75-.31.962.722-1.839-2.373-6.227-6.878-4.387-4.504-8.174-8.19-8.416-8.19-.242 0-.144.296.218.658m.245 2.229c-.301.487.122 1.442.941 2.122.819.68 1.489.901 1.489.491 0-.41.788-.141 1.75.597s.659.119-.674-1.377c-2.718-3.049-2.746-3.063-3.506-1.833M730.5 320c.995 1.1 2.035 2 2.31 2 .275 0-.315-.9-1.31-2-.995-1.1-2.035-2-2.31-2-.275 0 .315.9 1.31 2m5.964 5.857c.61 1.053.254 1.193-1.589.626l-2.375-.731 2.413 2.611c1.745 1.89 2.755 2.327 3.652 1.583.871-.723 1.395-.645 1.759.262.285.711.554.808.597.216.043-.591-1.119-2.166-2.582-3.5-1.464-1.333-2.308-1.813-1.875-1.067m.089 2.058a1.116 1.116 0 0 0 .362 1.532c.521.322 1.21.159 1.532-.362a1.116 1.116 0 0 0-.362-1.532 1.116 1.116 0 0 0-1.532.362m8.697 9.335c.138.688-.425 1.1-1.25.918-1.072-.238-.901.333.599 2 1.154 1.282 5.394 7.057 9.422 12.832 4.028 5.775 8.034 11.082 8.901 11.793.868.711 1.523 1.611 1.455 2-.323 1.861.912 3.212 2.063 2.257.911-.756 1.094-.238.749 2.116-.317 2.158-.108 2.902.677 2.417.647-.4 1.134-.077 1.134.753 0 .799 3.077 7.463 6.837 14.809 9.914 19.365 17.048 37.927 22.14 57.605.824 3.182 1.593 4.25 3.062 4.25 2.519 0 2.473-1.011-.525-11.355-9.226-31.838-34.608-83.282-40.527-82.142-1.289.248-1.701-.084-1.325-1.066.301-.784 1.059-1.109 1.685-.723.625.387-.944-2.203-3.487-5.756-2.543-3.552-5.089-6.458-5.658-6.458-.57 0-1.41-.41-1.869-.91-.484-.529-.309-.609.417-.191.688.395 1.25.298 1.25-.218 0-1.431-2.79-3.429-3.863-2.766-.536.331-.722-.285-.427-1.414.293-1.119.031-2.001-.593-2.001-.615 0-1.005.563-.867 1.25m-101.5 8.5c28.341.173 44.25.627 44.25 1.26 0 .545.873.99 1.941.99s2.183.392 2.479.871c.297.479 1.986.703 3.755.497 3.02-.352 3.098-.285 1.271 1.097-1.7 1.286-1.733 1.475-.255 1.503.93.018 1.969-.418 2.309-.968.34-.55 1.154-.986 1.809-.97.655.017.445.466-.466.998-1.024.598-1.457 1.732-1.133 2.97.317 1.215.031 2.002-.728 2.002-.689 0-.047.947 1.424 2.105l2.677 2.105 3.019-3.16c4.577-4.788 3.776-7.907-2.602-10.142-4.531-1.589-9.639-1.738-54.5-1.591l-49.5.162 44.25.271m44.333 4.609c.23.198 1.767.662 3.417 1.031 2.191.49 2.595.397 1.5-.344-1.35-.914-5.92-1.552-4.917-.687M712 354.941c0 .518.477 1.236 1.06 1.596.67.414.394 1.16-.75 2.027-.996.755-1.338 1.387-.76 1.404 1.819.055 3.238-2.061 2.718-4.052-.509-1.944-2.268-2.7-2.268-.975M710 357c0 .55.45 1 1 1s1-.45 1-1-.45-1-1-1-1 .45-1 1m7.437.899c.428.691-.059 1.933-1.137 2.904-1.036.933-2.5 3.61-3.252 5.947-1.185 3.681-1.748 4.25-4.208 4.25-2.363 0-2.84.42-2.84 2.5 0 1.375-.45 2.5-1 2.5s-1-1.125-1-2.5.45-2.5 1-2.5 1-1.575 1-3.5-.45-3.5-1-3.5-1 .9-1 2-.484 2-1.076 2c-.648 0-.966 1.778-.8 4.473.219 3.566-.206 4.986-2.099 7-3.097 3.297-4.025 3.188-4.025-.473 0-2.833-.222-3-4-3-3.966 0-4 .033-4 3.804 0 5.269-4.976 10.196-10.298 10.196-2.036 0-3.702.45-3.702 1s.505 1 1.122 1c.761 0 .71.498-.16 1.546-.705.85-1.91 1.304-2.678 1.01-2.016-.774-6.284 3.911-6.284 6.899 0 2.382-.315 2.545-4.917 2.545-2.983 0-5.076-.48-5.324-1.222-.26-.781-1.372-.256-3.083 1.455-3.203 3.203-3.304 3.767-.676 3.767 1.1 0 2-.45 2-1s.45-1 1-1c2.012 0 .922 3.271-2 6-3.527 3.294-3.703 4-1 4 2.718 0 2.551.516-1.467 4.533C647.123 423.944 640 425.612 640 423c0-.55-.695-1-1.545-1-1.78 0-6.455 4.365-6.455 6.026 0 1.949-2.766 3.974-5.429 3.974-2.076 0-2.571.481-2.571 2.5 0 1.375.43 2.5.955 2.5.525 0 2.079-1.125 3.454-2.5 3.29-3.29 3.591-3.183 3.591 1.279 0 2.632-.607 4.217-2 5.221-2.441 1.759-2.502 2.788-.309 5.211 1.603 1.772 1.528 2.032-1.464 5.023l-3.155 3.155-2.036-2.347-2.036-2.348-1.867 2.153c-2.202 2.538-2.73 2.645-3.475.704-.372-.969-.076-1.265.893-.893.797.306 1.449.095 1.449-.468 0-.563-.562-1.217-1.25-1.453-1.323-.455-13.427 12.07-13 13.452.137.446-.313.698-1 .561-.688-.138-1.119.368-.959 1.123.183.864-.27 1.157-1.223.792-.838-.322-2.083.197-2.791 1.165-1.531 2.093-8.494 6.272-10.122 6.074-3.133-.382-3.605.096-2.63 2.661 1.171 3.081 1.216 3.699.225 3.099-.413-.25-1.378.225-2.146 1.055-1.224 1.323-1.101 1.411 1 .721 1.318-.432 3.433-.711 4.701-.62 1.304.094 2.038-.264 1.691-.827-.338-.546-1.273-.993-2.078-.993-1.223 0-1.183-.429.244-2.607 1.516-2.314 1.84-2.427 2.883-1 1.732 2.368 2.581 1.956 1.863-.904-.509-2.028-.322-2.393.972-1.897.974.374 1.844-.012 2.216-.983.338-.878 1.024-1.344 1.525-1.034.501.31.672.951.379 1.425a1.01 1.01 0 0 0 .317 1.387c1.253.775 1.066-2.766-.189-3.583-2.137-1.389.033-1.692 2.597-.362 1.448.751 2.831 1.169 3.072.927.242-.241.221.702-.046 2.096-.487 2.55 1.196 3.616 2.029 1.285.245-.687.805-.915 1.243-.506.439.409-.247 1.649-1.523 2.756-1.276 1.107-1.962 2.347-1.523 2.756.438.409.998.182 1.243-.506.725-2.028 2.012-1.433 2.507 1.159.356 1.859.097 2.294-1.133 1.905-1.388-.438-1.4-.363-.094.576.825.594 2.813 1.086 4.417 1.095 5.096.026 1.663 1.495-4.749 2.03-4.272.357-.42.752 12.528 1.283 19.415.797 23.804.445 23.804-1.906 0-.766.655-1.392 1.457-1.392.801 0 3.388-1.817 5.75-4.037 3.381-3.179 4.902-3.956 7.161-3.656 1.578.21 4.728.033 7-.393 3.599-.675 4.418-.472 6.347 1.575 1.219 1.292 3.18 3.025 4.359 3.85 4.92 3.446 2.735 25.629-2.392 24.288-1.034-.27-1.597-.209-1.251.137.799.799-6.186 4.236-8.61 4.236-1.001 0-2.796-.975-3.988-2.167-1.317-1.317-3.536-2.214-5.66-2.288-2.52-.087-3.566-.614-3.753-1.89-.147-1.004.246-1.582.91-1.337.644.238 1.046.972.895 1.631-.151.66.208.901.799.536.753-.465.723-1.084-.098-2.074-1.585-1.91-4.305-1.842-3.564.089.361.942-.011 1.5-1 1.5-.99 0-1.362-.558-1-1.5.316-.825.113-1.5-.452-1.5-.566 0-.731-.481-.368-1.068.363-.588 1.313-.818 2.111-.512.81.311 1.181.121.84-.431-.392-.635-19.317-.933-52.802-.832-44.429.134-60.519 1.137-28.691 1.789 5.225.107 10.4.577 11.5 1.045 1.232.524-2.701.813-10.239.752-6.732-.054-12.544.207-12.917.579-.372.373.86.71 2.739.748 4.563.094 8.733 1.756 4.667 1.86-2.582.066-2.75.345-2.75 4.57 0 6.159-2.749 6.374-3.193.25-.431-5.965-3.143-6.179-8.641-.68-4.79 4.789-4.852 4.93-2.166 4.93 1.1 0 2 .351 2 .779 0 .429-.9 1.428-2 2.221-2.698 1.944-2.623 5 .122 5 1.782 0 1.921.243.867 1.513-.691.832-1.983 1.395-2.872 1.25-1.104-.179-1.717.609-1.933 2.487-.31 2.694-2.169 3.962-2.199 1.5-.011-.893-.268-.852-.899.146-.486.767-1.605 1.119-2.485.781-1.037-.398-1.601-.076-1.601.913 0 .841-.45 1.25-1 .91-.55-.34-1-.141-1 .441s-.499 1.059-1.108 1.059c-.726 0-.848-.95-.354-2.75.415-1.513.804-3.65.865-4.75.061-1.1.433-2.5.826-3.111.765-1.185.024-2.389-1.471-2.389-.5 0-.765 1.368-.59 3.04.176 1.673-.139 3.36-.698 3.75-1.382.965-5.631 18.141-4.814 19.463.359.581.193.772-.37.424-1.285-.794-3.824 10.644-2.748 12.384.459.743.362.995-.24.623-.599-.37-1.93 2.929-3.267 8.096-3.058 11.822-4.102 13.333-8.971 12.991-2.127-.149-3.683-.568-3.46-.931.786-1.275-.9-4.016-2.989-4.86-1.71-.691-1.778-.865-.361-.917 1.257-.045 1.717-.838 1.634-2.813-.071-1.692-.292-2.077-.573-1-.561 2.146-1.897 2.271-2.673.25-.316-.825-1.377-1.464-2.357-1.421-.979.043-1.243.298-.585.565.859.349.647 1.465-.75 3.952-2.338 4.163-2.434 5.754-.446 7.404.825.685 1.493 1.752 1.485 2.372-.009.621-.446.453-.972-.372-.726-1.139-1.37-1.242-2.675-.429-2.098 1.308-2.933 3.429-1.35 3.429 1.251 0 4.012 2.433 4.012 3.536 0 .373-.658.425-1.463.116-.848-.325-2.275.471-3.394 1.894-2.079 2.642-4.705 3.226-5.416 1.204-.242-.687-.217 1.163.055 4.112l.494 5.361-4.543-.361c-6.651-.53-4.704.929 2.297 1.721 3.849.435 5.97 1.132 5.97 1.961 0 .975-2.965 1.301-12.25 1.348-12.807.064-34.073 1.573-29.75 2.112 6.735.838-15.138 2.13-47 2.776-24.115.489 20.944.88 140.5 1.22l176 .5v14c0 16.159-2.091 21.836-10.396 28.224-8.532 6.563-2.193 6.258-134.036 6.456-65.762.099-116.193.468-112.068.82 4.125.352 6.289.721 4.809.82-3.218.215-4.847 2.18-1.807 2.18 2.011 0 2.093.371 1.614 7.25-.343 4.915-.244 6.123.307 3.75.744-3.2.825-3.265.945-.75.073 1.513.616 2.75 1.207 2.75.592 0 .973-1.237.847-2.75s.115-4.437.536-6.5l.765-3.75h13.92c11.451 0 14.022-.266 14.495-1.5.452-1.176 2.477-1.5 9.387-1.5 9.577 0 13.075.687 10.809 2.124-.759.481 5.619.852 14.803.861l16.136.015.63 3.25c.346 1.788.84 5.95 1.098 9.25.414 5.304 1.883 12.313 4.034 19.25l.698 2.25h-46.184c-43.525 0-46.152-.101-45.639-1.75 1.051-3.377-.93-4.682-3.28-2.16-1.171 1.258-2.13 2.652-2.13 3.099 0 .446-2.497.811-5.55.811-6.236 0-10.283 1.7-13.362 5.615-2.652 3.371-2.845 9.844-.338 11.305.963.561 1.3 1.04.75 1.065-.55.025-.325.482.5 1.015.93.601 27.393.975 69.693.985l68.194.015 1.556-2.223c5.302-7.568-2.15-17.777-12.976-17.777-7.059 0-10.42-5.691-12.109-20.5-.376-3.3-1.295-6.451-2.043-7.003-1.119-.825-1.134-1.485-.087-3.721l1.272-2.718 72-.279 72-.279 5-2.299c6.307-2.901 11.912-8.274 15.336-14.701l2.664-5V505c0-143.282.008-143-4.189-143-.97 0-1.246-.631-.838-1.916.335-1.054.071-2.248-.587-2.654-.774-.479-.932-.313-.449.469m42.646 2.362c.23.143 1.495 1.156 2.813 2.25l2.395 1.989-1.181-2.25c-.649-1.238-1.915-2.25-2.812-2.25-.897 0-1.444.117-1.215.261m-52.488 2.477c1.207 1.206 1.603 1.206 2.81 0 1.206-1.206 1.008-1.405-1.405-1.405-2.413 0-2.611.199-1.405 1.405m56.958 3.177a1.116 1.116 0 0 0 .362 1.532c.521.322 1.21.159 1.532-.362a1.116 1.116 0 0 0-.362-1.532 1.116 1.116 0 0 0-1.532.362M710 367c0 .55.45 1 1 1s1-.45 1-1-.45-1-1-1-1 .45-1 1m-66.25 46.323c-3.246 2.984-5.357 8.677-3.217 8.677 1.979 0 7.558-7.351 7.281-9.592l-.314-2.532-3.75 3.447M600 415c0 .55 1.139 1 2.532 1 3.059 0 9.137 2.439 11.931 4.788 2.028 1.704 2.028 1.702.132-.538-2.603-3.075-.517-2.861 2.401.246 1.29 1.373 2.545 2.296 2.79 2.051.809-.809-5.261-5.5-6.536-5.051-.687.243-1.25.005-1.25-.527 0-.533-.9-.969-2-.969s-2-.45-2-1-1.8-1-4-1-4 .45-4 1m21.459 4.067c-1.026 1.66-.105 1.89 1.33.332.71-.769.849-1.399.309-1.399-.539 0-1.277.48-1.639 1.067m-.782 6.736c-1.283.262-1.606.865-1.089 2.034.403.915 1.028 3.913 1.388 6.663.545 4.169.771 4.585 1.356 2.5 2-7.116 1.307-11.8-1.655-11.197m-1.167 17.213c.346.559 1.047.758 1.559.441 1.387-.857 1.129-1.457-.628-1.457-.857 0-1.276.457-.931 1.016m1.454 3.148c-1.145 2.233-1.118 2.26.61.61.994-.95 1.533-2.001 1.197-2.336-.335-.335-1.148.442-1.807 1.726m-3.297-.497c-.932.932-.832 2.333.166 2.333.459 0 .834-.675.834-1.5 0-1.699-.073-1.76-1-.833m-56.246 5.083c.399.714.136 1.265-.612 1.285-.72.02-.282.606.972 1.302 1.255.697 1.938 1.694 1.517 2.215-.421.521-.115.381.68-.313 1.241-1.084 1.114-1.576-.905-3.5-1.291-1.232-2.035-1.676-1.652-.989m47.143 9.543c.376.986.935 1.541 1.243 1.233.308-.307.001-1.114-.683-1.793-.988-.98-1.102-.865-.56.56M618 461c0 .55.45 1 1 1s1-.45 1-1-.45-1-1-1-1 .45-1 1m-28 14.941c0 .518.445 1.216.989 1.552.566.35.734-.051.393-.941-.665-1.732-1.382-2.049-1.382-.611m71 .059c0 .55.423 1 .941 1s1.219-.45 1.559-1c.34-.55-.084-1-.941-1s-1.559.45-1.559 1m-9 3c0 .55.477 1 1.059 1s.781-.45.441-1-.816-1-1.059-1-.441.45-.441 1m-41.187 1.683c.721.289 1.584.253 1.916-.079.332-.332-.258-.568-1.312-.525-1.165.048-1.402.285-.604.604M648.5 482c-.34.55-.141 1 .441 1s1.059-.45 1.059-1-.198-1-.441-1-.719.45-1.059 1m-60.75.706c1.237.238 3.263.238 4.5 0 1.237-.239.225-.434-2.25-.434s-3.487.195-2.25.434m212.173.439c-.657 3.051-.462 3.742 1.179 4.171 1.954.512 2.682 2.684.898 2.684-.55 0-1 .402-1 .894 0 .52 1.711.509 4.098-.027 24.653-5.539 37.378 29.666 14.873 41.148-4.002 2.041-15.256 4.255-14.374 2.828.287-.464-.198-.843-1.078-.843-2.546 0-8.784-3.564-11.655-6.658-5.787-6.24-6.485-9.707-4.693-23.342.224-1.702-.15-2.5-1.171-2.5-.959 0-1.414.811-1.262 2.25.131 1.238-.233 2.25-.809 2.25-.576 0-.809.385-.518.856 1.181 1.91 1.544 9.493.515 10.734-1.218 1.466-.342 5.41 1.2 5.41.546 0 .709.458.363 1.018-1.12 1.811 5.412 8.754 10.729 11.403 9.65 4.809-2.239 2.482-12.658-2.477-3.267-1.555-6.417-2.556-7-2.225-.583.331-.738.245-.345-.19 1.089-1.207-7.505-7.479-8.807-6.428-1.136.917-2.408.217-2.408-1.327 0-.49.563-.556 1.25-.145.688.411-.54-1.249-2.727-3.691-2.188-2.441-4.284-4.339-4.657-4.219-2.341.754.709-3.944 5.992-9.231 5.085-5.088 5.945-6.406 4.801-7.356-1.521-1.262-15.666 11.453-15.653 14.07.014 2.632 8.111 10.945 9.522 9.775 1.025-.851 1.204-.668.813.828-.451 1.725 1.259 3.303 3.909 3.609.413.047.811.536.885 1.086.187 1.394 9.08 7.251 15.404 10.147 24.58 11.253 55.677 2.779 75.717-20.633l3.678-4.297-1.997-2.806c-5.578-7.832-22.734-20.161-33.585-24.133-5.151-1.886-29.128-4.031-29.429-2.633m-255.673 1.571c1.513.229 3.987.229 5.5 0s.275-.416-2.75-.416-4.263.187-2.75.416m28.5.029c5.087.182 13.413.182 18.5 0 5.087-.181.925-.33-9.25-.33s-14.337.149-9.25.33m217.75.83c-9.576 3.434-14.5 7.133-14.5 10.894 0 .186 2.362-.913 5.25-2.442 2.888-1.53 7.5-3.589 10.25-4.576 5.813-2.087 7.695-3.327 6.93-4.564-.753-1.219-3.204-1.006-7.93.688m-263.31 2.544c-3.086 3.017-4.381 5.735-2.044 4.291.81-.501.945.092.46 2.025-.449 1.789-.327 2.511.354 2.09.572-.354 1.04-1.539 1.04-2.634 0-2.548 2.576-7.557 4.229-8.222.699-.281.794-.547.211-.59-.583-.043-2.496 1.324-4.25 3.04M818.5 488c.34.55 1.199 1 1.909 1 3.196 0 9.476 6.082 12.474 12.081 6.507 13.022 2.454 26.543-10.196 34.014l-5.187 3.064 3.958-.664c5.038-.845 15.023-5.36 21.229-9.601C848.738 523.76 859 514.083 859 512.512c0-2.233-13.501-14.168-20.326-17.968-8.863-4.935-21.766-9.121-20.174-6.544m-23.043 2.863c-4.743 2.892-8.74 8.092-7.432 9.668.857 1.032 2.014.378 5.504-3.112 2.43-2.431 4.88-4.419 5.445-4.419.564 0 1.026-.9 1.026-2 0-2.47-.683-2.491-4.543-.137M535.735 502c-.832 3.3-1.112 6-.623 6 .488 0 .888-.9.888-2 0-1.359.667-2 2.079-2 1.796 0 2.002-.443 1.512-3.25-.312-1.788-.309-2.685.006-1.994.713 1.561 2.403.635 2.403-1.315 0-.851-.974-1.441-2.377-1.441-2.07 0-2.572.773-3.888 6m232.137-2.25c-1.214 1.548-1.189 1.607.22.509.876-.683 1.96-.908 2.41-.5.45.407.495.179.099-.509-.929-1.616-1.093-1.586-2.729.5m-275.793.833c.048 1.165.285 1.402.604.605.289-.722.253-1.585-.079-1.917-.332-.332-.568.258-.525 1.312m50.04-.226c-1.192 1.436-.448 7.643.916 7.643.431 0 .754-2.025.716-4.5-.076-5.035-.071-5.025-1.632-3.143m261.122.968c-1.242.69-3.007 2.324-3.922 3.631-.916 1.306-1.137 2.05-.492 1.651.645-.399 1.173-.248 1.173.334 0 .582-.675 1.059-1.5 1.059-2.009 0-2.038 8.058-.044 11.915 2.998 5.797 11.814 7.706 17.646 3.822 6.689-4.456 8.878-14.283 2.916-13.091-5.351 1.071-9.731-3.576-7.915-8.396.771-2.047.556-2.247-2.378-2.215-1.774.02-4.241.6-5.484 1.29M522.158 510c0 1.375.227 1.938.504 1.25.278-.687.278-1.812 0-2.5-.277-.687-.504-.125-.504 1.25m11.466.539c-.965 2.514-.681 3.163.498 1.136.584-1.004.851-2.036.593-2.293-.257-.258-.749.263-1.091 1.157m-26.17 11.961c.391 2.75 1.15 5.45 1.688 6 .643.658.793.488.439-.5-.295-.825-.712-3.202-.925-5.282-.213-2.081-.731-4.106-1.15-4.5-.419-.395-.443 1.532-.052 4.282m26.796 1.212c-1.744 3.749-1.561 5.177.32 2.492.863-1.233 1.426-2.902 1.25-3.71-.206-.945-.766-.511-1.57 1.218m237.539 3.875c.542.969 1.714 1.87 2.603 2 2.034.299 1.15-1.226-1.547-2.67-1.792-.959-1.922-.877-1.056.67M496.5 529c.34.55.816 1 1.059 1s.441-.45.441-1-.477-1-1.059-1-.781.45-.441 1m12.658 3c0 1.375.227 1.938.504 1.25.278-.687.278-1.812 0-2.5-.277-.687-.504-.125-.504 1.25m20.049 1.303c.242 1.267-.174 2.877-.926 3.579-.806.753-1.1 2.114-.716 3.322.383 1.208.255 1.803-.313 1.451-.57-.352-.751.515-.442 2.125.286 1.496.709 2.158.939 1.47.23-.687 1.28-1.25 2.334-1.25 1.427 0 1.914-.703 1.906-2.75-.019-4.779-1.213-10.25-2.236-10.25-.543 0-.788 1.036-.546 2.303m3.793-.636c0 .733.675 1.333 1.5 1.333s1.5-.6 1.5-1.333c0-.734-.675-1.334-1.5-1.334s-1.5.6-1.5 1.334m-17.622 2.194c-.35 1.749-1.009 3.411-1.463 3.692-.455.281-.536 1.271-.179 2.2.446 1.163 1.04.151 1.907-3.247.693-2.715 1.06-5.137.815-5.381-.244-.244-.73.987-1.08 2.736m-17.299-.278c.048 1.165.285 1.402.604.605.289-.722.253-1.585-.079-1.917-.332-.332-.568.258-.525 1.312m13 9c.048 1.165.285 1.402.604.605.289-.722.253-1.585-.079-1.917-.332-.332-.568.258-.525 1.312M499.987 546c-.119.825-.127 2.351-.016 3.39.145 1.352-.249 1.717-1.384 1.282-.873-.335-1.587-.173-1.587.359 0 .533.675.969 1.5.969.933 0 1.5.944 1.5 2.5 0 1.375.417 2.5.927 2.5.509 0 1.132.788 1.384 1.75.381 1.46.469 1.418.529-.25.098-2.688-2.576-14.404-2.853-12.5m23.236 13.454c-2.001 1.105-2.091 1.41-.75 2.524.84.697 1.527 2.337 1.527 3.644 0 1.308.45 2.378 1 2.378s1-2.25 1-5-.112-4.956-.25-4.902c-.138.054-1.274.664-2.527 1.356M496 560.969c0 .532.675.709 1.5.393.825-.317 1.5-.753 1.5-.969 0-.216-.675-.393-1.5-.393s-1.5.436-1.5.969m303.412 15.781c-19.17 84.217-77.284 157.581-156.138 197.107-18.525 9.286-41.681 17.84-61.274 22.637-12.348 3.022-15.334 4.157-14.497 5.51 1.008 1.632 5.352 1.146 17.497-1.958 93.588-23.916 167.651-88.685 205.311-179.546C795.135 608.861 804 579.931 804 575.827c0-3.065-3.857-2.289-4.588.923M500 581.066c0 .513 1.531.821 3.403.683 1.871-.137 3.237-.518 3.035-.846-.608-.989-6.438-.841-6.438.163m-4 17.434c0 .825.257 1.5.571 1.5.315 0 1.247-.675 2.072-1.5 1.333-1.333 1.27-1.5-.572-1.5-1.174 0-2.071.649-2.071 1.5m10.995-.497c-1.919 1.186-.718 2.24 2.084 1.828 1.898-.279 2.024-.518.802-1.524-.904-.745-1.988-.859-2.886-.304M496 603.5c0 .82.75 1.117 2 .79 1.1-.288 2-.643 2-.79 0-.147-.9-.502-2-.79-1.25-.327-2-.03-2 .79m6-.107c0 1.262 1.074 1.607 5 1.607 2.75 0 5-.45 5-1s-1.538-1-3.418-1c-1.88 0-4.13-.273-5-.607-1.038-.398-1.582-.055-1.582 1m-60.25 6.313c1.238.238 3.262.238 4.5 0 1.238-.239.225-.434-2.25-.434s-3.488.195-2.25.434M302.5 615c-.34.55-.141 1 .441 1s1.059-.45 1.059-1-.198-1-.441-1-.719.45-1.059 1m206.5 9.927c0 .655-.412.936-.915.625-1.709-1.055-6.842 4.339-7.508 7.89-1.422 7.58 3.666 13.558 11.54 13.558 14.143 0 15.182-20.809 1.133-22.693-2.94-.395-4.25-.203-4.25.62m.582 1.94c-.431.698-1.37 1.045-2.086.77-.716-.275-2.025.032-2.909.682-1.351.993-1.055 1.193 1.853 1.254 1.902.04 3.2-.346 2.884-.857-.33-.536.328-.644 1.551-.256 1.637.52 2.121.257 2.11-1.143-.012-1.407-.21-1.51-.879-.454-.703 1.109-.946 1.118-1.302.049-.351-1.052-.594-1.061-1.222-.045m-204.193 19.492c.28 1.548.979 3.379 1.552 4.07.573.69.821 1.476.55 1.746-.27.271.186.492 1.013.492 1.327 0 1.323-.2-.031-1.697-.844-.933-1.732-2.719-1.973-3.968-.24-1.25-.704-2.539-1.029-2.865-.326-.325-.363.674-.082 2.222m160.355 37.949c-.721 4.307-.04 6.969 1.629 6.377 1.204-.427 1.187-1.204-.143-6.685l-.85-3.5-.636 3.808m-19.155 20.769c-1.496 1.778-2.589 4.313-2.589 6.007v2.93l67.75-.257 67.75-.257-.173-3.485c-.118-2.385-1.005-4.201-2.806-5.75L573.888 702h-124.71l-2.589 3.077m-158.036 2.838a1.116 1.116 0 0 0 .362 1.532c.521.322 1.21.159 1.532-.362a1.116 1.116 0 0 0-.362-1.532 1.116 1.116 0 0 0-1.532.362m2.526 2.776c-.114 1.721 1.656 2.548 2.506 1.171.432-.698.292-.904-.345-.51-.588.363-1.297.095-1.576-.596-.362-.899-.529-.917-.585-.065m6.246 2.967c.362.362.099 1.374-.584 2.25-1.071 1.373-1.022 1.422.351.351.876-.683 1.986-.908 2.467-.5.481.407.272-.047-.464-1.009-.737-.962-1.585-1.75-1.884-1.75-.299 0-.248.296.114.658M315 734.378c0 .207.788.995 1.75 1.75 1.586 1.243 1.621 1.208.378-.378-1.307-1.666-2.128-2.195-2.128-1.372m7.924 6.952c2.548 2.806 3.096 3.151 3.045 1.92-.018-.413-1.255-1.614-2.75-2.67l-2.719-1.919 2.424 2.669m5.317.168c.408.45.29 1.362-.262 2.027-.691.833-.561 1.577.42 2.391.996.827 1.622.859 2.086.108.365-.591.293-1.009-.161-.93-1.984.344-2.485-.195-1.398-1.505.902-1.087.873-1.583-.127-2.16-.715-.412-.965-.381-.558.069m6.85 6.892c-.943 1.137-.554 1.856 1.983 3.663 2.98 2.121 3.097 2.134 2.077.229-.594-1.11-.861-2.239-.592-2.508.269-.269-.137-1.009-.902-1.644-1.067-.885-1.666-.825-2.566.26m.462.525a1.116 1.116 0 0 0 .362 1.532c.521.322 1.21.159 1.532-.362a1.116 1.116 0 0 0-.362-1.532 1.116 1.116 0 0 0-1.532.362m13.954 11.074c-.35.566.051.734.941.393 1.732-.665 2.049-1.382.611-1.382-.518 0-1.216.445-1.552.989m3.2 1.676c-.329.532.84 1.796 2.597 2.807 1.758 1.011 2.862 1.473 2.455 1.026-.408-.448-.183-1.498.5-2.333 1.07-1.309.971-1.37-.717-.436-1.523.843-2.212.737-3.098-.474-.65-.889-1.395-1.143-1.737-.59m10.216 3.55c-.92 3.432-.3 3.981 10.918 9.649 6.412 3.241 14.134 6.901 17.159 8.134 3.025 1.232 6.85 2.827 8.5 3.544 12.183 5.289 24.159 9.276 40.5 13.482 13.181 3.394 17 3.71 17 1.409 0-1.143-.575-1.385-2.125-.893-1.226.389-1.882.28-1.55-.258.317-.512-4.014-1.981-9.624-3.264-5.611-1.284-14.87-3.829-20.577-5.657-5.707-1.828-10.839-3.037-11.405-2.688-.565.35-.765.211-.444-.309s-1.747-1.764-4.596-2.764c-5.842-2.053-13.263-5.157-16.026-6.704-1.016-.569-2.083-.8-2.369-.513-.287.287-1.157-.113-1.932-.888-.775-.776-2.146-1.128-3.045-.783-1.044.401-1.39.231-.957-.47.722-1.168-2.9-2.819-5.2-2.371-.743.144-1.083-.17-.756-.699.906-1.466-1.975-2.177-3.419-.844-.998.922-1.136.793-.645-.601.531-1.505.326-1.613-1.353-.715-1.696.908-1.988.733-2.056-1.227-.043-1.257-.306-1.722-.583-1.035-.715 1.772-3.009 1.55-3.742-.361-.443-1.153-.189-1.447.893-1.032.831.319 1.511.385 1.511.147 0-.498-3.96-2.722-4.077-2.289m135.63 1.7c-.311.503 1.012 2.982 2.941 5.509 4.051 5.308 4.243 6.207 1.506 7.076-1.1.349-2 1.081-2 1.626 0 .546-.385.754-.855.464-.833-.515-4.043 2.503-5.651 5.315-.578 1.01-.409 1.2.601.675.773-.4.65-.107-.273.653-1.008.83-1.363 1.891-.89 2.656.566.916 1.662.214 3.894-2.495 2.559-3.103 2.893-4.045 1.891-5.332-1.048-1.345-.993-1.387.394-.305 1.308 1.021 2.339.953 5.485-.361 4.81-2.01 12.712-1.284 16.499 1.516 1.794 1.326 2.967 1.626 3.66.933.692-.692 1.265-.621 1.787.222.477.773.357.988-.318.571-1.331-.822-2.587.966-1.694 2.411.442.714 1.104.669 2.082-.142 1.177-.977 1.31-.866.741.616-.514 1.339-.351 1.594.632.987.887-.549 1.085-.433.6.352-.398.644-1.142.912-1.654.595-.512-.316-.931-.147-.931.377 0 1.073 3.029 2.471 3.763 1.736 2.06-2.06-6.32-13.57-9.879-13.57-2.569 0-2.416-.514 1.616-5.435 5.944-7.253 5.534-7.565-9.941-7.565-7.393 0-13.695.412-14.006.915m6.682 4.648c.116 1.409.899 3.097 1.738 3.75 1.267.985 1.356.925.527-.352-.55-.846.203-.174 1.674 1.495l2.675 3.035 2.673-2.496c1.471-1.372 3.56-3.732 4.644-5.245l1.97-2.75h-8.057c-8.035 0-8.056.007-7.844 2.563M384.5 779c.34.55.816 1 1.059 1s.441-.45.441-1-.477-1-1.059-1-.781.45-.441 1m137.922 2.667c.134.917 1.033 1.783 1.998 1.924 1.666.245 1.667.163.011-1.667-2.125-2.349-2.32-2.373-2.009-.257m-15.922 8.535c-15.373 5.348-16.74 27.244-2.116 33.885 18.997 8.627 35.858-16.132 20.292-29.798-5.435-4.773-11.978-6.244-18.176-4.087M516 792c0 .55-1.619 1-3.599 1-10.536 0-17.394 9.482-13.87 19.179.864 2.377 1.711 4.996 1.883 5.821.172.825 1.056 1.366 1.963 1.203.907-.163 1.874.287 2.148 1 .78 2.034 9.725 2.153 14.148.188 2.105-.935 4.277-1.593 4.827-1.462.55.131.661-.101.246-.516-.414-.414-.068-1.798.769-3.076 4.125-6.296 2.198-15.653-4.088-19.848-1.69-1.128-2.89-2.6-2.667-3.27.224-.67-.081-1.219-.677-1.219-.596 0-1.083.45-1.083 1m6 1.378c0 .207.788.995 1.75 1.75 1.586 1.243 1.621 1.208.378-.378-1.307-1.666-2.128-2.195-2.128-1.372" fill-rule="evenodd"/>
</svg>